<svg width="198" height="55" viewBox="0 0 198 55" fill="none" xmlns="http://www.w3.org/2000/svg">
<g filter="url(#filter0_d)">
<path fill-rule="evenodd" clip-rule="evenodd" d="M64.824 38.364V46.1H44.008V1.353H64.824V9.023H51.624V19.827H62.159V27.497H51.624V38.363L64.824 38.364ZM86.17 46.1V38.364L75.573 38.363V1.353H67.957V46.1H86.17ZM192.7 46.1V38.364H179.499V27.497H190.034V19.827H179.499V9.024H192.7V1.353H171.884V46.1H192.7ZM167.459 1.354H159.908L153.115 22.959L146.324 1.354H138.772V46.101H146.389V24.111L149.371 35.489H156.796L159.843 24.111V46.101H167.459V1.354ZM127.999 9.024H122.476V38.364H128L127.999 9.024ZM135.679 6.085C135.679 3.463 133.521 1.354 130.981 1.354L119.557 1.355C116.957 1.355 114.861 3.464 114.861 6.085V41.37C114.861 43.927 116.957 46.1 119.557 46.1H130.981C133.521 46.1 135.679 43.927 135.679 41.37V6.085ZM102.971 29.606L110.649 27.816V41.368C110.649 43.925 108.492 46.098 105.953 46.098H94.528C91.928 46.098 89.833 43.925 89.833 41.368V6.084C89.833 3.462 91.928 1.354 94.528 1.354H105.951C108.491 1.354 110.648 3.462 110.648 6.084V15.161L102.97 16.951V9.023H97.448V38.363H102.97L102.971 29.606ZM40.241 1.354H32.564L31.994 38.364H31.232L26.344 1.354H18.792L14.032 38.364H13.208L12.573 1.354H4.95703L6.09903 46.1H20.632L22.599 27.626L24.567 46.1H39.037L40.241 1.354Z" fill="#81B3D3"/>
<path d="M64.824 46.1V46.6H65.324V46.1H64.824ZM64.824 38.364H65.324V37.864L64.8241 37.864L64.824 38.364ZM44.008 46.1H43.508V46.6H44.008V46.1ZM44.008 1.353V0.852997H43.508V1.353H44.008ZM64.824 1.353H65.324V0.852997H64.824V1.353ZM64.824 9.023V9.523H65.324V9.023H64.824ZM51.624 9.023V8.523H51.124V9.023H51.624ZM51.624 19.827H51.124V20.327H51.624V19.827ZM62.159 19.827H62.659V19.327H62.159V19.827ZM62.159 27.497V27.997H62.659V27.497H62.159ZM51.624 27.497V26.997H51.124V27.497H51.624ZM51.624 38.363H51.124V38.863L51.624 38.863L51.624 38.363ZM86.17 38.364H86.67V37.864L86.1701 37.864L86.17 38.364ZM86.17 46.1V46.6H86.67V46.1H86.17ZM75.573 38.363H75.073V38.8629L75.573 38.863L75.573 38.363ZM75.573 1.353H76.073V0.852997H75.573V1.353ZM67.957 1.353V0.852997H67.457V1.353H67.957ZM67.957 46.1H67.457V46.6H67.957V46.1ZM192.7 38.364H193.2V37.864H192.7V38.364ZM192.7 46.1V46.6H193.2V46.1H192.7ZM179.499 38.364H178.999V38.864H179.499V38.364ZM179.499 27.497V26.997H178.999V27.497H179.499ZM190.034 27.497V27.997H190.534V27.497H190.034ZM190.034 19.827H190.534V19.327H190.034V19.827ZM179.499 19.827H178.999V20.327H179.499V19.827ZM179.499 9.024V8.524H178.999V9.024H179.499ZM192.7 9.024V9.524H193.2V9.024H192.7ZM192.7 1.353H193.2V0.852997H192.7V1.353ZM171.884 1.353V0.852997H171.384V1.353H171.884ZM171.884 46.1H171.384V46.6H171.884V46.1ZM159.908 1.354V0.853997H159.541L159.431 1.20403L159.908 1.354ZM167.459 1.354H167.959V0.853997H167.459V1.354ZM153.115 22.959L152.638 23.1089L153.115 24.6262L153.592 23.109L153.115 22.959ZM146.324 1.354L146.801 1.20407L146.691 0.853997H146.324V1.354ZM138.772 1.354V0.853997H138.272V1.354H138.772ZM138.772 46.101H138.272V46.601H138.772V46.101ZM146.389 46.101V46.601H146.889V46.101H146.389ZM146.389 24.111L146.873 23.9842L145.889 24.111H146.389ZM149.371 35.489L148.887 35.6158L148.985 35.989H149.371V35.489ZM156.796 35.489V35.989H157.18L157.279 35.6183L156.796 35.489ZM159.843 24.111H160.343L159.36 23.9817L159.843 24.111ZM159.843 46.101H159.343V46.601H159.843V46.101ZM167.459 46.101V46.601H167.959V46.101H167.459ZM122.476 9.024V8.524H121.976V9.024H122.476ZM127.999 9.024L128.499 9.02398L128.499 8.524H127.999V9.024ZM122.476 38.364H121.976V38.864H122.476V38.364ZM128 38.364V38.864H128.5L128.5 38.364L128 38.364ZM130.981 1.354L130.981 0.853997L130.981 0.853997L130.981 1.354ZM119.557 1.355L119.557 1.855L119.557 1.855L119.557 1.355ZM110.649 27.816H111.149V27.186L110.536 27.3291L110.649 27.816ZM102.971 29.606L102.858 29.1191L102.471 29.2091L102.471 29.6059L102.971 29.606ZM110.648 15.161L110.762 15.6479L111.148 15.5578V15.161H110.648ZM102.97 16.951H102.47V17.581L103.084 17.4379L102.97 16.951ZM102.97 9.023H103.47V8.523H102.97V9.023ZM97.448 9.023V8.523H96.948V9.023H97.448ZM97.448 38.363H96.948V38.863H97.448V38.363ZM102.97 38.363V38.863H103.47L103.47 38.3631L102.97 38.363ZM32.564 1.354V0.853997H32.0717L32.0641 1.3463L32.564 1.354ZM40.241 1.354L40.7409 1.36745L40.7547 0.853997H40.241V1.354ZM31.994 38.364V38.864H32.4864L32.494 38.3717L31.994 38.364ZM31.232 38.364L30.7363 38.4295L30.7937 38.864H31.232V38.364ZM26.344 1.354L26.8397 1.28853L26.7823 0.853997H26.344V1.354ZM18.792 1.354V0.853997H18.3522L18.2961 1.29022L18.792 1.354ZM14.032 38.364V38.864H14.4718L14.5279 38.4278L14.032 38.364ZM13.208 38.364L12.7081 38.3726L12.7165 38.864H13.208V38.364ZM12.573 1.354L13.073 1.34542L13.0645 0.853997H12.573V1.354ZM4.95703 1.354V0.853997H4.44411L4.45719 1.36675L4.95703 1.354ZM6.09903 46.1L5.59919 46.1128L5.61163 46.6H6.09903V46.1ZM20.632 46.1V46.6H21.0816L21.1292 46.1529L20.632 46.1ZM22.599 27.626L23.0962 27.573L22.1018 27.5731L22.599 27.626ZM24.567 46.1L24.0698 46.153L24.1175 46.6H24.567V46.1ZM39.037 46.1V46.6H39.5238L39.5369 46.1134L39.037 46.1ZM65.324 46.1V38.364H64.324V46.1H65.324ZM44.008 46.6H64.824V45.6H44.008V46.6ZM43.508 1.353V46.1H44.508V1.353H43.508ZM64.824 0.852997H44.008V1.853H64.824V0.852997ZM65.324 9.023V1.353H64.324V9.023H65.324ZM51.624 9.523H64.824V8.523H51.624V9.523ZM52.124 19.827V9.023H51.124V19.827H52.124ZM62.159 19.327H51.624V20.327H62.159V19.327ZM62.659 27.497V19.827H61.659V27.497H62.659ZM51.624 27.997H62.159V26.997H51.624V27.997ZM52.124 38.363V27.497H51.124V38.363H52.124ZM64.8241 37.864L51.6241 37.863L51.624 38.863L64.824 38.864L64.8241 37.864ZM85.67 38.364V46.1H86.67V38.364H85.67ZM75.573 38.863L86.17 38.864L86.1701 37.864L75.5731 37.863L75.573 38.863ZM75.073 1.353V38.363H76.073V1.353H75.073ZM67.957 1.853H75.573V0.852997H67.957V1.853ZM68.457 46.1V1.353H67.457V46.1H68.457ZM86.17 45.6H67.957V46.6H86.17V45.6ZM192.2 38.364V46.1H193.2V38.364H192.2ZM179.499 38.864H192.7V37.864H179.499V38.864ZM178.999 27.497V38.364H179.999V27.497H178.999ZM190.034 26.997H179.499V27.997H190.034V26.997ZM189.534 19.827V27.497H190.534V19.827H189.534ZM179.499 20.327H190.034V19.327H179.499V20.327ZM178.999 9.024V19.827H179.999V9.024H178.999ZM192.7 8.524H179.499V9.524H192.7V8.524ZM192.2 1.353V9.024H193.2V1.353H192.2ZM171.884 1.853H192.7V0.852997H171.884V1.853ZM172.384 46.1V1.353H171.384V46.1H172.384ZM192.7 45.6H171.884V46.6H192.7V45.6ZM159.908 1.854H167.459V0.853997H159.908V1.854ZM153.592 23.109L160.385 1.50397L159.431 1.20403L152.638 22.809L153.592 23.109ZM145.847 1.50393L152.638 23.1089L153.592 22.8091L146.801 1.20407L145.847 1.50393ZM138.772 1.854H146.324V0.853997H138.772V1.854ZM139.272 46.101V1.354H138.272V46.101H139.272ZM146.389 45.601H138.772V46.601H146.389V45.601ZM145.889 24.111V46.101H146.889V24.111H145.889ZM149.855 35.3622L146.873 23.9842L145.905 24.2378L148.887 35.6158L149.855 35.3622ZM156.796 34.989H149.371V35.989H156.796V34.989ZM159.36 23.9817L156.313 35.3597L157.279 35.6183L160.326 24.2403L159.36 23.9817ZM160.343 46.101V24.111H159.343V46.101H160.343ZM167.459 45.601H159.843V46.601H167.459V45.601ZM166.959 1.354V46.101H167.959V1.354H166.959ZM122.476 9.524H127.999V8.524H122.476V9.524ZM122.976 38.364V9.024H121.976V38.364H122.976ZM128 37.864H122.476V38.864H128V37.864ZM127.499 9.02401L127.5 38.364L128.5 38.364L128.499 9.02398L127.499 9.02401ZM130.981 1.854C133.246 1.854 135.179 3.74024 135.179 6.085H136.179C136.179 3.18575 133.796 0.853997 130.981 0.853997V1.854ZM119.557 1.855L130.981 1.854L130.981 0.853997L119.557 0.854997L119.557 1.855ZM115.361 6.085C115.361 3.73688 117.236 1.855 119.557 1.855V0.854997C116.678 0.854997 114.361 3.19111 114.361 6.085H115.361ZM115.361 41.37V6.085H114.361V41.37H115.361ZM119.557 45.6C117.241 45.6 115.361 43.6585 115.361 41.37H114.361C114.361 44.1955 116.673 46.6 119.557 46.6V45.6ZM130.981 45.6H119.557V46.6H130.981V45.6ZM135.179 41.37C135.179 43.6541 133.242 45.6 130.981 45.6V46.6C133.8 46.6 136.179 44.1999 136.179 41.37H135.179ZM135.179 6.085V41.37H136.179V6.085H135.179ZM110.536 27.3291L102.858 29.1191L103.085 30.0929L110.763 28.3029L110.536 27.3291ZM111.149 41.368V27.816H110.149V41.368H111.149ZM105.953 46.598C108.772 46.598 111.149 44.1977 111.149 41.368H110.149C110.149 43.6523 108.212 45.598 105.953 45.598V46.598ZM94.528 46.598H105.953V45.598H94.528V46.598ZM89.333 41.368C89.333 44.1933 91.6441 46.598 94.528 46.598V45.598C92.2119 45.598 90.333 43.6567 90.333 41.368H89.333ZM89.333 6.084V41.368H90.333V6.084H89.333ZM94.528 0.853997C91.6486 0.853997 89.333 3.18918 89.333 6.084H90.333C90.333 3.73481 92.2075 1.854 94.528 1.854V0.853997ZM105.951 0.853997H94.528V1.854H105.951V0.853997ZM111.148 6.084C111.148 3.18475 108.766 0.853997 105.951 0.853997V1.854C108.216 1.854 110.148 3.73924 110.148 6.084H111.148ZM111.148 15.161V6.084H110.148V15.161H111.148ZM103.084 17.4379L110.762 15.6479L110.535 14.6741L102.857 16.4641L103.084 17.4379ZM102.47 9.023V16.951H103.47V9.023H102.47ZM97.448 9.523H102.97V8.523H97.448V9.523ZM97.948 38.363V9.023H96.948V38.363H97.948ZM102.97 37.863H97.448V38.863H102.97V37.863ZM102.471 29.6059L102.47 38.3629L103.47 38.3631L103.471 29.6061L102.471 29.6059ZM32.564 1.854H40.241V0.853997H32.564V1.854ZM32.494 38.3717L33.064 1.3617L32.0641 1.3463L31.4941 38.3563L32.494 38.3717ZM31.232 38.864H31.994V37.864H31.232V38.864ZM25.8483 1.41946L30.7363 38.4295L31.7277 38.2985L26.8397 1.28853L25.8483 1.41946ZM18.792 1.854H26.344V0.853997H18.792V1.854ZM14.5279 38.4278L19.2879 1.41778L18.2961 1.29022L13.5361 38.3002L14.5279 38.4278ZM13.208 38.864H14.032V37.864H13.208V38.864ZM12.0731 1.36257L12.7081 38.3726L13.708 38.3554L13.073 1.34542L12.0731 1.36257ZM4.95703 1.854H12.573V0.853997H4.95703V1.854ZM6.59887 46.0872L5.45687 1.34124L4.45719 1.36675L5.59919 46.1128L6.59887 46.0872ZM20.632 45.6H6.09903V46.6H20.632V45.6ZM22.1018 27.5731L20.1348 46.0471L21.1292 46.1529L23.0962 27.6789L22.1018 27.5731ZM25.0642 46.047L23.0962 27.573L22.1018 27.679L24.0698 46.153L25.0642 46.047ZM39.037 45.6H24.567V46.6H39.037V45.6ZM39.7412 1.34055L38.5372 46.0865L39.5369 46.1134L40.7409 1.36745L39.7412 1.34055Z" fill="black"/>
</g>
<defs>
<filter id="filter0_d" x="0.444092" y="0.852997" width="196.756" height="53.748" filterUnits="userSpaceOnUse" color-interpolation-filters="sRGB">
<feFlood flood-opacity="0" result="BackgroundImageFix"/>
<feColorMatrix in="SourceAlpha" type="matrix" values="0 0 0 0 0 0 0 0 0 0 0 0 0 0 0 0 0 0 127 0"/>
<feOffset dy="4"/>
<feGaussianBlur stdDeviation="2"/>
<feColorMatrix type="matrix" values="0 0 0 0 0 0 0 0 0 0 0 0 0 0 0 0 0 0 0.25 0"/>
<feBlend mode="normal" in2="BackgroundImageFix" result="effect1_dropShadow"/>
<feBlend mode="normal" in="SourceGraphic" in2="effect1_dropShadow" result="shape"/>
</filter>
</defs>
</svg>
